<?xml version="1.0" encoding="UTF-8" standalone="no"?>
<!-- Created with Inkscape (http://www.inkscape.org/) -->

<svg
   xmlns:dc="http://purl.org/dc/elements/1.1/"
   xmlns:cc="http://creativecommons.org/ns#"
   xmlns:rdf="http://www.w3.org/1999/02/22-rdf-syntax-ns#"
   xmlns:svg="http://www.w3.org/2000/svg"
   xmlns="http://www.w3.org/2000/svg"
   xmlns:sodipodi="http://sodipodi.sourceforge.net/DTD/sodipodi-0.dtd"
   xmlns:inkscape="http://www.inkscape.org/namespaces/inkscape"
   width="210mm"
   height="297mm"
   viewBox="0 0 744.09448819 1052.3622047"
   id="svg2"
   version="1.1"
   inkscape:version="0.91 r13725"
   sodipodi:docname="letters.svg">
  <defs
     id="defs4" />
  <sodipodi:namedview
     id="base"
     pagecolor="#ffffff"
     bordercolor="#666666"
     borderopacity="1.0"
     inkscape:pageopacity="0.0"
     inkscape:pageshadow="2"
     inkscape:zoom="1.4"
     inkscape:cx="370.69147"
     inkscape:cy="641.28049"
     inkscape:document-units="px"
     inkscape:current-layer="layer1"
     showgrid="false"
     inkscape:window-width="1920"
     inkscape:window-height="1027"
     inkscape:window-x="-8"
     inkscape:window-y="-8"
     inkscape:window-maximized="1" />
  <metadata
     id="metadata7">
    <rdf:RDF>
      <cc:Work
         rdf:about="">
        <dc:format>image/svg+xml</dc:format>
        <dc:type
           rdf:resource="http://purl.org/dc/dcmitype/StillImage" />
        <dc:title></dc:title>
      </cc:Work>
    </rdf:RDF>
  </metadata>
  <g
     inkscape:label="Layer 1"
     inkscape:groupmode="layer"
     id="layer1">
    <g
       id="letter_3"
       inkscape:label="#g3378">
      <rect
         y="358.67679"
         x="410.12192"
         height="128"
         width="128"
         id="rect3370"
         style="fill:#ffffff;fill-opacity:0;stroke:none;stroke-width:3;stroke-miterlimit:4;stroke-dasharray:none;stroke-opacity:1" />
      <path
         inkscape:connector-curvature="0"
         id="rect3339"
         d="m 470.07923,370.8222 0,35.58791 -15.68289,-9.0545 -2.80648,4.86214 18.48937,10.67521 0,12.33396 -15.68289,-9.0545 -2.80648,4.86215 18.48937,10.67521 0,42.82159 11.93375,0 0,-35.9319 11.83286,6.83181 2.80814,-4.86215 -14.641,-8.45251 0,-12.33396 11.83286,6.8318 2.80814,-4.86214 -14.641,-8.45252 0,-42.4776 -11.93375,0 z"
         style="fill:#ffffff;fill-opacity:1;stroke:none;stroke-width:3;stroke-miterlimit:4;stroke-dasharray:none;stroke-opacity:1" />
    </g>
    <g
       id="letter_2"
       inkscape:label="#g3382">
      <rect
         style="fill:#ffffff;fill-opacity:0;stroke:none;stroke-width:3;stroke-miterlimit:4;stroke-dasharray:none;stroke-opacity:1"
         id="rect3368"
         width="128"
         height="128"
         x="266.68027"
         y="358.67679" />
      <path
         inkscape:connector-curvature="0"
         id="path3346"
         d="m 300.44871,371.31624 0.14087,0.29812 0,102.42298 11.82005,0 0,-77.46261 36.68213,77.46261 11.82006,0 -48.50219,-102.42298 0,-0.29812 -0.14087,0 -11.67918,0 -0.14087,0 z"
         style="fill:#ffffff;fill-opacity:1;stroke:none;stroke-width:3;stroke-miterlimit:4;stroke-dasharray:none;stroke-opacity:1" />
    </g>
    <g
       id="letter_1"
       inkscape:label="#g3386">
      <rect
         y="358.67679"
         x="114.14723"
         height="128"
         width="128"
         id="rect3366"
         style="fill:#ffffff;fill-opacity:0;stroke:none;stroke-width:3;stroke-miterlimit:4;stroke-dasharray:none;stroke-opacity:1" />
      <path
         inkscape:connector-curvature="0"
         id="path3350"
         d="m 152.15901,371.31624 0,102.7211 11.82005,0 0,-46.52671 15.33363,-15.33364 19.699,19.70064 5.12377,-5.12213 -19.70064,-19.70064 19.70064,-19.70063 -5.12377,-5.12213 -19.699,19.70063 -15.33363,-15.33363 0,-15.28286 -11.82005,0 z m 11.82005,25.52875 10.20986,10.20987 -10.20986,10.20987 0,-20.41974 z"
         style="fill:#ffffff;fill-opacity:1;stroke:none;stroke-width:3;stroke-miterlimit:4;stroke-dasharray:none;stroke-opacity:1" />
    </g>
    <g
       id="letter_4"
       inkscape:label="#g4195">
      <rect
         style="fill:#ffffff;fill-opacity:0;stroke:none;stroke-width:3;stroke-miterlimit:4;stroke-dasharray:none;stroke-opacity:1"
         id="rect3372"
         width="128"
         height="128"
         x="561.64478"
         y="358.67679" />
      <path
         inkscape:connector-curvature="0"
         id="path3356"
         d="m 609.194,370.79862 -4.2769,4.27854 14.81766,14.81766 0,53.74552 -10.54076,-10.54074 -4.2769,4.27854 14.81766,14.81765 0,22.14131 11.82005,0 0,-10.32126 10.5391,10.53912 4.27855,-4.27691 -14.81765,-14.81765 0,-53.74554 10.5391,10.53912 4.27855,-4.27854 -14.81765,-14.81765 0,-21.54179 -11.82005,0 0,9.72336 -10.54076,-10.54074 z"
         style="fill:#ffffff;fill-opacity:1;stroke:none;stroke-width:3;stroke-miterlimit:4;stroke-dasharray:none;stroke-opacity:1" />
    </g>
    <rect
       y="190.21935"
       x="-45.714287"
       height="87.85714"
       width="225"
       id="rect4190"
       style="fill:#000080;fill-opacity:1;stroke:none;stroke-width:3;stroke-miterlimit:4;stroke-dasharray:none;stroke-opacity:1" />
  </g>
</svg>
